<svg width="39" height="20" viewBox="0 0 39 20" fill="none" xmlns="http://www.w3.org/2000/svg">
<path d="M38.25 18.507C38.25 19.2862 37.4137 19.9166 36.3844 19.9166H21.3656C20.8708 19.9166 20.3963 19.7681 20.0464 19.5037C19.6966 19.2394 19.5 18.8808 19.5 18.507C19.5 18.1331 19.6966 17.7746 20.0464 17.5103C20.3963 17.2459 20.8708 17.0974 21.3656 17.0974H36.3844C37.4156 17.0974 38.25 17.7278 38.25 18.507Z" fill="white"/>
<path d="M38.25 9.99992C38.25 10.7791 37.4137 11.4095 36.3844 11.4095H2.61562C2.12083 11.4095 1.6463 11.261 1.29643 10.9966C0.946556 10.7323 0.75 10.3738 0.75 9.99992C0.75 9.62607 0.946556 9.26754 1.29643 9.00319C1.6463 8.73884 2.12083 8.59033 2.61562 8.59033H36.3844C37.4156 8.59033 38.25 9.22217 38.25 9.99992Z" fill="white"/>
<path d="M36.3844 2.90242C36.8792 2.90242 37.3537 2.75391 37.7036 2.48956C38.0534 2.22521 38.25 1.86668 38.25 1.49284C38.25 1.11899 38.0534 0.760457 37.7036 0.496109C37.3537 0.231761 36.8792 0.083252 36.3844 0.083252H13.8656C13.6206 0.0832519 13.378 0.119712 13.1517 0.19055C12.9253 0.261388 12.7197 0.365217 12.5464 0.496109C12.3732 0.627001 12.2358 0.782393 12.142 0.953412C12.0483 1.12443 12 1.30773 12 1.49284C12 1.67794 12.0483 1.86124 12.142 2.03226C12.2358 2.20328 12.3732 2.35867 12.5464 2.48956C12.7197 2.62045 12.9253 2.72428 13.1517 2.79512C13.378 2.86596 13.6206 2.90242 13.8656 2.90242H36.3844Z" fill="white"/>
</svg>
