<svg width="42" height="42" viewBox="0 0 42 42" fill="none" xmlns="http://www.w3.org/2000/svg">
<path d="M2.21053 38.8743L10.1375 30.9474H35.3684C36.541 30.9474 37.6655 30.4816 38.4946 29.6525C39.3237 28.8234 39.7895 27.6989 39.7895 26.5263V6.63158C39.7895 5.45904 39.3237 4.33453 38.4946 3.50542C37.6655 2.67631 36.541 2.21053 35.3684 2.21053H6.63158C5.45904 2.21053 4.33453 2.67631 3.50542 3.50542C2.67631 4.33453 2.21053 5.45904 2.21053 6.63158V38.8743ZM2.21053 42H0V6.63158C0 4.87277 0.698682 3.18601 1.94234 1.94234C3.18601 0.698682 4.87277 0 6.63158 0H35.3684C37.1272 0 38.814 0.698682 40.0577 1.94234C41.3013 3.18601 42 4.87277 42 6.63158V26.5263C42 28.2851 41.3013 29.9719 40.0577 31.2155C38.814 32.4592 37.1272 33.1579 35.3684 33.1579H11.0526L2.21053 42Z" fill="white"/>
</svg>
