<svg width="29" height="28" viewBox="0 0 29 28" fill="none" xmlns="http://www.w3.org/2000/svg">
<path opacity="0.4" d="M1.5 25.657L6.879 20.4515H24C24.7956 20.4515 25.5587 20.1456 26.1213 19.6012C26.6839 19.0567 27 18.3182 27 17.5483V4.48374C27 3.71376 26.6839 2.97531 26.1213 2.43085C25.5587 1.88639 24.7956 1.58052 24 1.58052H4.5C3.70435 1.58052 2.94129 1.88639 2.37868 2.43085C1.81607 2.97531 1.5 3.71376 1.5 4.48374V25.657ZM1.5 27.7096H0V4.48374C0 3.32877 0.474106 2.2211 1.31802 1.40441C2.16193 0.587718 3.30653 0.128906 4.5 0.128906H24C25.1935 0.128906 26.3381 0.587718 27.182 1.40441C28.0259 2.2211 28.5 3.32877 28.5 4.48374V17.5483C28.5 18.7032 28.0259 19.8109 27.182 20.6276C26.3381 21.4443 25.1935 21.9031 24 21.9031H7.5L1.5 27.7096Z" fill="white"/>
</svg>
