<svg width="27" height="23" viewBox="0 0 27 23" fill="none" xmlns="http://www.w3.org/2000/svg">
<path d="M11.0196 0.0410143C12.8605 0.0410144 14.2966 0.0553368 15.3279 0.0839834C16.3591 0.11263 17.1517 0.173501 17.7057 0.266601C18.2597 0.3597 18.6091 0.438476 18.754 0.502929C18.8989 0.567382 19.1333 0.692708 19.4571 0.878906C19.7128 1.05078 20.1773 1.19043 20.8506 1.29785C21.5239 1.40527 22.6446 1.50195 24.2128 1.58789C24.4855 1.60221 24.6986 1.68815 24.852 1.8457C24.8861 1.88867 24.9543 1.98177 25.0566 2.125C25.1588 2.26823 25.3037 2.50814 25.4912 2.84473C25.6787 3.18131 25.8534 3.55013 26.0154 3.95117C26.1773 4.35221 26.3179 4.85352 26.4372 5.45508C26.5566 6.05664 26.6162 6.66536 26.6162 7.28125C26.6162 9.3724 26.1986 10.9766 25.3634 12.0937C25.1929 12.3086 24.9543 12.416 24.6475 12.416C23.2156 12.416 21.6432 13.1465 19.9301 14.6074C18.2171 16.0684 16.7384 18.0521 15.4941 20.5586C15.46 20.6016 15.4046 20.7018 15.3279 20.8594C15.2512 21.0169 15.2043 21.1172 15.1872 21.1602C15.1702 21.2031 15.1233 21.2855 15.0466 21.4072C14.9699 21.529 14.9017 21.6077 14.8421 21.6436C14.7824 21.6794 14.7014 21.7331 14.5992 21.8047C14.4969 21.8763 14.3904 21.9229 14.2796 21.9443C14.1688 21.9658 14.0324 21.9873 13.8705 22.0088C13.7085 22.0303 13.5253 22.041 13.3208 22.041C13.0139 22.041 12.6986 21.9837 12.3747 21.8691C12.0509 21.7546 11.7526 21.6006 11.4798 21.4072C11.2071 21.2139 10.9855 20.9954 10.8151 20.752C10.4912 20.3079 10.3037 19.6706 10.2526 18.8398C10.2014 18.0091 10.2313 17.2357 10.3421 16.5195C10.4529 15.8034 10.602 15.1159 10.7895 14.457C7.75542 14.4714 5.69292 14.4785 4.60201 14.4785C3.59632 14.4785 2.7824 14.2493 2.16024 13.791C1.53808 13.3327 1.21848 12.7311 1.20144 11.9863C1.18439 11.3561 1.2611 10.8763 1.43155 10.5469C1.14178 10.3034 0.898881 10.0492 0.702857 9.78418C0.506835 9.5192 0.400302 9.222 0.383256 8.89258C0.36621 8.2194 0.758256 7.5319 1.55939 6.83008C1.54235 6.80143 1.50826 6.7334 1.45712 6.62597C1.40598 6.51855 1.36763 6.42903 1.34206 6.35742C1.3165 6.28581 1.29519 6.19629 1.27814 6.08886C1.2611 5.98144 1.25257 5.8776 1.25257 5.77734C1.28666 4.98958 1.83212 4.28776 2.88894 3.67187C2.80371 3.19922 2.81223 2.77669 2.91451 2.40429C3.3236 0.828773 6.0253 0.0410138 11.0196 0.0410143ZM23.7781 2.98437C20.9827 2.79818 19.21 2.46875 18.46 1.99609C18.1872 1.82422 17.9486 1.70963 17.7441 1.65234C17.5395 1.59505 16.9259 1.54134 15.9031 1.49121C14.8804 1.44108 13.2526 1.41601 11.0196 1.41601C10.3208 1.41601 9.68581 1.43034 9.11479 1.45898C8.54377 1.48763 7.88326 1.53776 7.13326 1.60937C6.38326 1.68099 5.77814 1.80989 5.31792 1.99609C4.85769 2.18229 4.58496 2.41862 4.49973 2.70508C4.43155 3.00586 4.59348 3.32812 4.98553 3.67187C5.07076 3.84375 5.07076 4.0192 4.98553 4.19824C4.9003 4.37728 4.76394 4.5026 4.57644 4.57422L4.55087 4.57422C4.46564 4.60286 4.36337 4.63867 4.24405 4.68164C4.12473 4.72461 3.95002 4.80338 3.7199 4.91797C3.48979 5.03255 3.29803 5.1722 3.14462 5.33691C2.99121 5.50162 2.90598 5.66276 2.88894 5.82031C2.88894 5.8776 2.8932 5.93131 2.90172 5.98144C2.91025 6.03157 2.91877 6.07812 2.92729 6.12109C2.93581 6.16406 2.95286 6.20703 2.97843 6.25L3.04235 6.35742L3.10627 6.44336L3.17019 6.51855L3.22132 6.57226L3.25968 6.61523L3.27246 6.63672C3.34064 6.70833 3.38326 6.78711 3.4003 6.87304C3.41735 6.95898 3.41735 7.04492 3.4003 7.13086C3.38326 7.21679 3.3449 7.29915 3.28525 7.37793C3.22559 7.4567 3.15314 7.52474 3.06791 7.58203C2.96564 7.625 2.85485 7.68587 2.73553 7.76465C2.61621 7.84342 2.46706 7.99023 2.28809 8.20508C2.10911 8.41992 2.01962 8.63476 2.01962 8.84961C2.03666 9.20768 2.36053 9.54427 2.99121 9.85937C3.09348 9.91666 3.17871 9.9847 3.24689 10.0635C3.31507 10.1423 3.36621 10.2318 3.4003 10.332C3.41735 10.3893 3.42161 10.4502 3.41309 10.5146C3.40456 10.5791 3.38752 10.6436 3.36195 10.708C3.33638 10.7725 3.29803 10.8333 3.24689 10.8906C3.22985 10.9049 3.2128 10.9228 3.19576 10.9443C3.17871 10.9658 3.14462 11.0195 3.09348 11.1055C3.04235 11.1914 2.99973 11.2738 2.96564 11.3525C2.93155 11.4313 2.90172 11.528 2.87615 11.6426C2.85058 11.7572 2.8378 11.8646 2.8378 11.9648C2.85485 12.2227 2.93581 12.4375 3.0807 12.6094C3.22558 12.7812 3.41308 12.8994 3.6432 12.9639C3.87331 13.0283 4.05655 13.0677 4.19291 13.082C4.32928 13.0964 4.46564 13.1035 4.60201 13.1035L10.585 13.1035L11.9656 13.082C12.0338 13.082 12.102 13.0892 12.1702 13.1035C12.2384 13.1178 12.3023 13.1393 12.3619 13.168C12.4216 13.1966 12.477 13.2288 12.5281 13.2646C12.5793 13.3005 12.6219 13.347 12.656 13.4043C12.8094 13.5905 12.835 13.8053 12.7327 14.0488C12.46 14.7077 12.2426 15.431 12.0807 16.2187C11.9188 17.0065 11.8421 17.7585 11.8506 18.4746C11.8591 19.1908 11.9827 19.7135 12.2213 20.043C12.2384 20.0716 12.2725 20.1217 12.3236 20.1934C12.3747 20.265 12.4088 20.3151 12.4259 20.3437C12.4429 20.3724 12.4813 20.4118 12.5409 20.4619C12.6006 20.512 12.6602 20.5479 12.7199 20.5693C12.7796 20.5908 12.8605 20.6123 12.9628 20.6338C13.0651 20.6553 13.1844 20.666 13.3208 20.666C13.3719 20.666 13.423 20.6517 13.4742 20.623C13.5253 20.5944 13.602 20.5299 13.7043 20.4297C13.8066 20.3294 13.9003 20.1934 13.9855 20.0215C15.298 17.3574 16.8833 15.234 18.7412 13.6514C20.5992 12.0687 22.3975 11.2057 24.1361 11.0625C24.2725 10.8047 24.3918 10.5469 24.4941 10.2891C24.5963 10.0312 24.7029 9.62305 24.8137 9.06445C24.9245 8.50586 24.9798 7.91146 24.9798 7.28125C24.9798 6.63672 24.9031 5.99577 24.7497 5.3584C24.5963 4.72103 24.4387 4.21973 24.2767 3.85449C24.1148 3.48926 23.9486 3.19922 23.7781 2.98437Z" fill="#FF4E4E"/>
</svg>
