<svg width="52" height="47" viewBox="0 0 52 47" fill="none" xmlns="http://www.w3.org/2000/svg">
<path d="M6.49326 23.1828C5.33315 22.0223 4.43454 20.6273 3.8577 19.0912C3.28086 17.555 3.03912 15.9133 3.14869 14.2761C3.25825 12.6389 3.71659 11.0441 4.49298 9.5985C5.26936 8.15293 6.34584 6.89007 7.65024 5.89458C8.95463 4.8991 10.4568 4.194 12.056 3.82658C13.6552 3.45915 15.3145 3.43789 16.9226 3.76422C18.5306 4.09055 20.0504 4.75692 21.3798 5.71866C22.7093 6.68039 23.8178 7.91526 24.631 9.34046H27.6589C28.4721 7.91526 29.5805 6.68039 30.91 5.71866C32.2395 4.75692 33.7592 4.09055 35.3673 3.76422C36.9754 3.43789 38.6347 3.45915 40.2339 3.82658C41.8331 4.194 43.3352 4.8991 44.6396 5.89458C45.944 6.89007 47.0205 8.15293 47.7969 9.5985C48.5733 11.0441 49.0316 12.6389 49.1412 14.2761C49.2507 15.9133 49.009 17.555 48.4322 19.0912C47.8553 20.6273 46.9567 22.0223 45.7966 23.1828L26.1449 42.8398L6.49326 23.1855V23.1828ZM47.7087 25.1057C49.0957 23.7185 50.1807 22.0594 50.8955 20.2326C51.6102 18.4058 51.9392 16.4508 51.8618 14.4907C51.7844 12.5306 51.3022 10.6077 50.4456 8.84295C49.589 7.07821 48.3765 5.5098 46.8844 4.23638C45.3923 2.96295 43.6528 2.01205 41.7753 1.44348C39.8979 0.874911 37.9231 0.700973 35.9752 0.932604C34.0272 1.16424 32.1483 1.79643 30.4566 2.78942C28.7648 3.7824 27.2968 5.11471 26.1449 6.70254C24.993 5.11471 23.5251 3.7824 21.8333 2.78942C20.1415 1.79643 18.2626 1.16424 16.3147 0.932604C14.3668 0.700973 12.392 0.874911 10.5145 1.44348C8.6371 2.01205 6.89761 2.96295 5.40548 4.23638C3.91335 5.5098 2.70086 7.07821 1.84426 8.84295C0.987664 10.6077 0.505493 12.5306 0.428071 14.4907C0.35065 16.4508 0.679654 18.4058 1.39439 20.2326C2.10913 22.0594 3.19414 23.7185 4.58118 25.1057L26.1449 46.6667L47.7087 25.1084V25.1057Z" fill="white"/>
</svg>
