<svg width="27" height="23" viewBox="0 0 27 23" fill="none" xmlns="http://www.w3.org/2000/svg">
<path d="M15.9804 22.041C14.1395 22.041 12.7034 22.0267 11.6721 21.998C10.6409 21.9694 9.84828 21.9085 9.2943 21.8154C8.74032 21.7223 8.39089 21.6436 8.24601 21.5791C8.10112 21.5146 7.86674 21.3893 7.54288 21.2031C7.2872 21.0312 6.82271 20.8916 6.14941 20.7842C5.47612 20.6768 4.35538 20.5801 2.7872 20.4941C2.51447 20.4798 2.3014 20.3939 2.14799 20.2363C2.1139 20.1934 2.04572 20.1003 1.94345 19.957C1.84118 19.8138 1.69629 19.5739 1.50879 19.2373C1.32129 18.9007 1.14657 18.5319 0.984641 18.1309C0.82271 17.7298 0.682085 17.2285 0.562766 16.627C0.443448 16.0254 0.383789 15.4167 0.383789 14.8008C0.383789 12.7096 0.801403 11.1055 1.63663 9.98828C1.80708 9.77344 2.04572 9.66602 2.35254 9.66602C3.78436 9.66602 5.3568 8.93555 7.06987 7.47461C8.78294 6.01367 10.2616 4.02995 11.5059 1.52344C11.54 1.48047 11.5954 1.38021 11.6721 1.22266C11.7488 1.0651 11.7957 0.964844 11.8128 0.921875C11.8298 0.878906 11.8767 0.796549 11.9534 0.674805C12.0301 0.55306 12.0983 0.474284 12.1579 0.438477C12.2176 0.402669 12.2986 0.348958 12.4008 0.277344C12.5031 0.205729 12.6096 0.15918 12.7204 0.137695C12.8312 0.116211 12.9676 0.0947266 13.1295 0.0732422C13.2915 0.0517578 13.4747 0.0410156 13.6792 0.0410156C13.9861 0.0410156 14.3014 0.0983073 14.6253 0.212891C14.9491 0.327474 15.2474 0.481445 15.5202 0.674805C15.7929 0.868164 16.0145 1.08659 16.1849 1.33008C16.5088 1.77409 16.6963 2.41146 16.7474 3.24219C16.7986 4.07292 16.7687 4.84635 16.6579 5.5625C16.5471 6.27865 16.398 6.96615 16.2105 7.625C19.2446 7.61068 21.3071 7.60352 22.398 7.60352C23.4037 7.60352 24.2176 7.83268 24.8398 8.29102C25.4619 8.74935 25.7815 9.35091 25.7986 10.0957C25.8156 10.7259 25.7389 11.2057 25.5684 11.5352C25.8582 11.7786 26.1011 12.0329 26.2971 12.2979C26.4932 12.5628 26.5997 12.86 26.6167 13.1895C26.6338 13.8626 26.2417 14.5501 25.4406 15.252C25.4577 15.2806 25.4917 15.3486 25.5429 15.4561C25.594 15.5635 25.6324 15.653 25.6579 15.7246C25.6835 15.7962 25.7048 15.8857 25.7219 15.9932C25.7389 16.1006 25.7474 16.2044 25.7474 16.3047C25.7133 17.0924 25.1679 17.7943 24.1111 18.4102C24.1963 18.8828 24.1878 19.3053 24.0855 19.6777C23.6764 21.2533 20.9747 22.041 15.9804 22.041ZM3.22186 19.0977C6.01731 19.2839 7.79004 19.6133 8.54004 20.0859C8.81277 20.2578 9.0514 20.3724 9.25595 20.4297C9.46049 20.487 10.0741 20.5407 11.0969 20.5908C12.1196 20.641 13.7474 20.666 15.9804 20.666C16.6792 20.666 17.3142 20.6517 17.8852 20.623C18.4562 20.5944 19.1167 20.5443 19.8667 20.4727C20.6167 20.401 21.2219 20.2721 21.6821 20.0859C22.1423 19.8997 22.415 19.6634 22.5003 19.377C22.5684 19.0762 22.4065 18.7539 22.0145 18.4102C21.9292 18.2383 21.9292 18.0628 22.0145 17.8838C22.0997 17.7048 22.2361 17.5794 22.4236 17.5078H22.4491C22.5344 17.4792 22.6366 17.4434 22.7559 17.4004C22.8753 17.3574 23.05 17.2786 23.2801 17.1641C23.5102 17.0495 23.702 16.9098 23.8554 16.7451C24.0088 16.5804 24.094 16.4193 24.1111 16.2617C24.1111 16.2044 24.1068 16.1507 24.0983 16.1006C24.0898 16.0505 24.0812 16.0039 24.0727 15.9609C24.0642 15.918 24.0471 15.875 24.0216 15.832L23.9577 15.7246L23.8937 15.6387L23.8298 15.5635L23.7787 15.5098L23.7403 15.4668L23.7275 15.4453C23.6594 15.3737 23.6167 15.2949 23.5997 15.209C23.5827 15.123 23.5827 15.0371 23.5997 14.9512C23.6167 14.8652 23.6551 14.7829 23.7148 14.7041C23.7744 14.6253 23.8469 14.5573 23.9321 14.5C24.0344 14.457 24.1452 14.3962 24.2645 14.3174C24.3838 14.2386 24.5329 14.0918 24.7119 13.877C24.8909 13.6621 24.9804 13.4473 24.9804 13.2324C24.9633 12.8743 24.6395 12.5378 24.0088 12.2227C23.9065 12.1654 23.8213 12.0973 23.7531 12.0186C23.6849 11.9398 23.6338 11.8503 23.5997 11.75C23.5827 11.6927 23.5784 11.6318 23.5869 11.5674C23.5954 11.5029 23.6125 11.4385 23.6381 11.374C23.6636 11.3096 23.702 11.2487 23.7531 11.1914C23.7702 11.1771 23.7872 11.1592 23.8042 11.1377C23.8213 11.1162 23.8554 11.0625 23.9065 10.9766C23.9577 10.8906 24.0003 10.8083 24.0344 10.7295C24.0684 10.6507 24.0983 10.554 24.1238 10.4395C24.1494 10.3249 24.1622 10.2174 24.1622 10.1172C24.1452 9.85938 24.0642 9.64453 23.9193 9.47266C23.7744 9.30078 23.5869 9.18262 23.3568 9.11816C23.1267 9.05371 22.9434 9.01432 22.8071 9C22.6707 8.98568 22.5344 8.97852 22.398 8.97852H16.415L15.0344 9C14.9662 9 14.898 8.99284 14.8298 8.97852C14.7616 8.96419 14.6977 8.94271 14.6381 8.91406C14.5784 8.88542 14.523 8.85319 14.4719 8.81738C14.4207 8.78158 14.3781 8.73503 14.344 8.67773C14.1906 8.49154 14.165 8.27669 14.2673 8.0332C14.54 7.37435 14.7574 6.65104 14.9193 5.86328C15.0812 5.07552 15.1579 4.32357 15.1494 3.60742C15.1409 2.89128 15.0173 2.36849 14.7787 2.03906C14.7616 2.01042 14.7275 1.96029 14.6764 1.88867C14.6253 1.81706 14.5912 1.76693 14.5741 1.73828C14.5571 1.70964 14.5187 1.67025 14.4591 1.62012C14.3994 1.56999 14.3398 1.53418 14.2801 1.5127C14.2204 1.49121 14.1395 1.46973 14.0372 1.44824C13.9349 1.42676 13.8156 1.41602 13.6792 1.41602C13.6281 1.41602 13.577 1.43034 13.5258 1.45898C13.4747 1.48763 13.398 1.55208 13.2957 1.65234C13.1934 1.7526 13.0997 1.88867 13.0145 2.06055C11.702 4.72461 10.1167 6.84798 8.25879 8.43066C6.40084 10.0133 4.60254 10.8763 2.8639 11.0195C2.72754 11.2773 2.60822 11.5352 2.50595 11.793C2.40368 12.0508 2.29714 12.459 2.18635 13.0176C2.07555 13.5762 2.02015 14.1706 2.02015 14.8008C2.02015 15.4453 2.09686 16.0863 2.25027 16.7236C2.40368 17.361 2.56135 17.8623 2.72328 18.2275C2.88521 18.5928 3.0514 18.8828 3.22186 19.0977Z" fill="#00A3FF"/>
</svg>
