<svg width="30" height="29" viewBox="0 0 30 29" fill="none" xmlns="http://www.w3.org/2000/svg">
<path opacity="0.3" d="M4.70898 0H13.959C15.1856 0 16.362 0.471557 17.2294 1.31093C18.0967 2.15031 18.584 3.28875 18.584 4.47581V10.4436H17.0423V4.47581C17.0423 3.68444 16.7175 2.92548 16.1392 2.36589C15.561 1.80631 14.7767 1.49194 13.959 1.49194H4.70898C3.89123 1.49194 3.10698 1.80631 2.52874 2.36589C1.9505 2.92548 1.62565 3.68444 1.62565 4.47581V23.871C1.62565 24.6624 1.9505 25.4213 2.52874 25.9809C3.10698 26.5405 3.89123 26.8549 4.70898 26.8549H13.959C14.7767 26.8549 15.561 26.5405 16.1392 25.9809C16.7175 25.4213 17.0423 24.6624 17.0423 23.871V17.9032H18.584V23.871C18.584 25.0581 18.0967 26.1965 17.2294 27.0359C16.362 27.8752 15.1856 28.3468 13.959 28.3468H4.70898C3.48236 28.3468 2.30597 27.8752 1.43862 27.0359C0.57126 26.1965 0.0839844 25.0581 0.0839844 23.871V4.47581C0.0839844 3.28875 0.57126 2.15031 1.43862 1.31093C2.30597 0.471557 3.48236 0 4.70898 0ZM9.33399 13.4274H26.6777L21.6673 8.57864L22.691 7.45968L29.6285 14.1734L22.691 20.8871L21.6673 19.7682L26.6777 14.9194H9.33399V13.4274Z" fill="white"/>
</svg>
