<svg width="15" height="15" viewBox="0 0 15 15" fill="none" xmlns="http://www.w3.org/2000/svg">
<path d="M11.2772 14.0434C11.0808 14.0432 10.8889 13.9844 10.7261 13.8745L7.41055 11.6523C7.39422 11.641 7.37485 11.635 7.355 11.635C7.33515 11.635 7.31578 11.641 7.29944 11.6523L3.98389 13.8745C3.8174 13.9857 3.62103 14.0436 3.42085 14.0405C3.22068 14.0374 3.02618 13.9735 2.86318 13.8573C2.70017 13.7411 2.57638 13.578 2.50824 13.3898C2.4401 13.2016 2.43083 12.997 2.48167 12.8034L3.57055 8.9634C3.5757 8.94409 3.57508 8.9237 3.56876 8.90474C3.56244 8.88578 3.5507 8.86909 3.535 8.85673L0.397221 6.39007C0.232038 6.26701 0.109509 6.09535 0.0468142 5.89914C-0.0158806 5.70293 -0.0155969 5.49202 0.0476254 5.29598C0.110848 5.09995 0.233838 4.92861 0.399352 4.806C0.564865 4.68339 0.764601 4.61565 0.970554 4.61229L4.97055 4.46118C4.99022 4.45982 5.00908 4.45281 5.02485 4.44098C5.04062 4.42915 5.05263 4.41301 5.05944 4.39451L6.43722 0.647845C6.50667 0.457907 6.63281 0.293897 6.79855 0.178021C6.9643 0.0621451 7.16165 0 7.36389 0C7.56612 0 7.76348 0.0621451 7.92922 0.178021C8.09497 0.293897 8.22111 0.457907 8.29056 0.647845L9.66833 4.39451C9.67514 4.41301 9.68716 4.42915 9.70293 4.44098C9.7187 4.45281 9.73755 4.45982 9.75722 4.46118L13.7572 4.61229C13.9632 4.61565 14.1629 4.68339 14.3284 4.806C14.4939 4.92861 14.6169 5.09995 14.6802 5.29598C14.7434 5.49202 14.7437 5.70293 14.681 5.89914C14.6183 6.09535 14.4957 6.26701 14.3306 6.39007L11.1928 8.85673C11.1766 8.86869 11.1645 8.88536 11.1581 8.90445C11.1518 8.92354 11.1515 8.94412 11.1572 8.9634L12.2461 12.8034C12.2843 12.9507 12.2881 13.1048 12.2572 13.2538C12.2263 13.4028 12.1614 13.5427 12.0677 13.6626C11.9741 13.7825 11.854 13.8792 11.7169 13.9452C11.5798 14.0113 11.4294 14.0449 11.2772 14.0434ZM7.35722 10.7456C7.55404 10.7516 7.7445 10.8167 7.90389 10.9323L11.2194 13.1545C11.2362 13.1673 11.2567 13.1743 11.2778 13.1744C11.2989 13.1746 11.3195 13.1679 11.3365 13.1554C11.3535 13.1429 11.366 13.1253 11.3722 13.1051C11.3783 13.0849 11.3777 13.0632 11.3706 13.0434L10.2817 9.2034C10.2281 9.01503 10.232 8.81494 10.293 8.62883C10.354 8.44272 10.4692 8.27909 10.6239 8.15896L13.7617 5.69229C13.7788 5.68027 13.7916 5.66307 13.7982 5.64323C13.8048 5.62339 13.8049 5.60195 13.7985 5.58205C13.792 5.56216 13.7793 5.54487 13.7623 5.53271C13.7453 5.52055 13.7248 5.51417 13.7039 5.51451L9.70389 5.3634C9.50803 5.35577 9.31888 5.28997 9.16057 5.1744C9.00226 5.05883 8.88195 4.89873 8.815 4.71451L7.43722 0.967845C7.43101 0.947952 7.4186 0.930564 7.40181 0.918217C7.38502 0.90587 7.36473 0.899212 7.34389 0.899212C7.32305 0.899212 7.30275 0.90587 7.28596 0.918217C7.26917 0.930564 7.25677 0.947952 7.25055 0.967845L5.88611 4.71007C5.81916 4.89429 5.69885 5.05439 5.54054 5.16996C5.38223 5.28552 5.19308 5.35132 4.99722 5.35896L0.997221 5.51007C0.976307 5.50973 0.955835 5.51611 0.938814 5.52826C0.921793 5.54042 0.909119 5.55772 0.902653 5.57761C0.896188 5.5975 0.896273 5.61894 0.902895 5.63879C0.909517 5.65863 0.922327 5.67582 0.939443 5.68784L4.08167 8.15896C4.23586 8.27948 4.35073 8.44314 4.41167 8.62912C4.47261 8.81509 4.47686 9.015 4.42389 9.2034L3.33944 13.0434C3.33297 13.0626 3.33294 13.0834 3.33936 13.1027C3.34577 13.1219 3.35828 13.1386 3.375 13.1501C3.3911 13.1638 3.41159 13.1714 3.43278 13.1714C3.45396 13.1714 3.47445 13.1638 3.49055 13.1501L6.80611 10.9278C6.96815 10.8204 7.15833 10.7632 7.35278 10.7634L7.35722 10.7456Z" fill="#00A3FF"/>
</svg>
