<svg width="35" height="29" viewBox="0 0 35 29" fill="none" xmlns="http://www.w3.org/2000/svg">
<g opacity="0.3">
<path d="M34.3915 16.189V21.8848C34.3915 24.353 28.2429 27.5807 20.6582 27.5807C13.0734 27.5807 6.9248 24.353 6.9248 21.8848V17.1383" stroke="white" stroke-linecap="round" stroke-linejoin="round"/>
<path d="M7.50195 17.63C9.199 19.8096 14.4471 21.8544 20.6585 21.8544C28.2433 21.8544 34.3919 18.8052 34.3919 16.1851C34.3919 14.7137 32.4555 13.1018 29.4165 11.9702" stroke="white" stroke-linecap="round" stroke-linejoin="round"/>
<path d="M28.5058 6.6958V12.3917C28.5058 14.8599 22.3572 18.0875 14.7724 18.0875C7.18768 18.0875 1.03906 14.8599 1.03906 12.3917V6.6958" stroke="white" stroke-linecap="round" stroke-linejoin="round"/>
<path fill-rule="evenodd" clip-rule="evenodd" d="M14.7724 12.3613C22.3572 12.3613 28.5058 9.31214 28.5058 6.69205C28.5058 4.07006 22.3572 1 14.7724 1C7.18768 1 1.03906 4.07006 1.03906 6.69205C1.03906 9.31214 7.18768 12.3613 14.7724 12.3613Z" stroke="white" stroke-linecap="round" stroke-linejoin="round"/>
</g>
</svg>
