<svg width="12" height="8" viewBox="0 0 12 8" fill="none" xmlns="http://www.w3.org/2000/svg">
<path d="M1.49129 8L0.133649 8C0.0196743 8 -0.0423412 7.84264 0.033083 7.74036L5.59438 0.216879C5.64467 0.148802 5.70684 0.0942034 5.77668 0.0567846C5.84651 0.0193657 5.92239 4.22353e-07 5.99916 4.29064e-07C6.07594 4.35776e-07 6.15181 0.0193658 6.22165 0.0567846C6.29149 0.0942034 6.35365 0.148802 6.40394 0.216879L11.9669 7.74037C12.0423 7.84068 11.9803 8 11.8663 8L10.5087 8C10.4299 8 10.3562 7.96066 10.3059 7.89182L6.63692 2.92927L5.99916 2.17397L5.36308 2.92927L1.6941 7.89182C1.64214 7.96066 1.56839 8 1.49129 8Z" fill="#00A3FF"/>
</svg>
