<svg width="62" height="62" viewBox="0 0 62 62" fill="none" xmlns="http://www.w3.org/2000/svg">
<g opacity="0.3" clip-path="url(#clip0_340:3269)">
<path d="M58.125 46.5C58.125 47.5277 57.7167 48.5133 56.99 49.24C56.2633 49.9667 55.2777 50.375 54.25 50.375H7.75C6.72229 50.375 5.73666 49.9667 5.00996 49.24C4.28326 48.5133 3.875 47.5277 3.875 46.5V23.25C3.875 22.2223 4.28326 21.2367 5.00996 20.51C5.73666 19.7833 6.72229 19.375 7.75 19.375H12.2915C15.373 19.3733 18.3278 18.1482 20.5065 15.9689L23.7228 12.7604C24.4474 12.0355 25.4297 11.6273 26.4546 11.625H35.5376C36.5653 11.6252 37.5507 12.0336 38.2773 12.7604L41.4858 15.9689C42.5654 17.0489 43.8474 17.9056 45.2582 18.49C46.6691 19.0745 48.1814 19.3752 49.7085 19.375H54.25C55.2777 19.375 56.2633 19.7833 56.99 20.51C57.7167 21.2367 58.125 22.2223 58.125 23.25V46.5ZM7.75 15.5C5.69457 15.5 3.72333 16.3165 2.26992 17.7699C0.816516 19.2233 0 21.1946 0 23.25L0 46.5C0 48.5554 0.816516 50.5267 2.26992 51.9801C3.72333 53.4335 5.69457 54.25 7.75 54.25H54.25C56.3054 54.25 58.2767 53.4335 59.7301 51.9801C61.1835 50.5267 62 48.5554 62 46.5V23.25C62 21.1946 61.1835 19.2233 59.7301 17.7699C58.2767 16.3165 56.3054 15.5 54.25 15.5H49.7085C47.6532 15.4996 45.6823 14.6828 44.2292 13.2292L41.0208 10.0207C39.5677 8.56724 37.5968 7.75044 35.5415 7.75H26.4585C24.4032 7.75044 22.4323 8.56724 20.9792 10.0207L17.7708 13.2292C16.3177 14.6828 14.3468 15.4996 12.2915 15.5H7.75Z" fill="white"/>
<path d="M31 42.625C28.4307 42.625 25.9667 41.6044 24.1499 39.7876C22.3331 37.9708 21.3125 35.5068 21.3125 32.9375C21.3125 30.3682 22.3331 27.9042 24.1499 26.0874C25.9667 24.2706 28.4307 23.25 31 23.25C33.5693 23.25 36.0333 24.2706 37.8501 26.0874C39.6669 27.9042 40.6875 30.3682 40.6875 32.9375C40.6875 35.5068 39.6669 37.9708 37.8501 39.7876C36.0333 41.6044 33.5693 42.625 31 42.625ZM31 46.5C34.597 46.5 38.0467 45.0711 40.5901 42.5276C43.1336 39.9842 44.5625 36.5345 44.5625 32.9375C44.5625 29.3405 43.1336 25.8908 40.5901 23.3474C38.0467 20.8039 34.597 19.375 31 19.375C27.403 19.375 23.9533 20.8039 21.4099 23.3474C18.8664 25.8908 17.4375 29.3405 17.4375 32.9375C17.4375 36.5345 18.8664 39.9842 21.4099 42.5276C23.9533 45.0711 27.403 46.5 31 46.5ZM11.625 25.1875C11.625 25.7014 11.4209 26.1942 11.0575 26.5575C10.6942 26.9209 10.2014 27.125 9.6875 27.125C9.17364 27.125 8.68083 26.9209 8.31748 26.5575C7.95413 26.1942 7.75 25.7014 7.75 25.1875C7.75 24.6736 7.95413 24.1808 8.31748 23.8175C8.68083 23.4541 9.17364 23.25 9.6875 23.25C10.2014 23.25 10.6942 23.4541 11.0575 23.8175C11.4209 24.1808 11.625 24.6736 11.625 25.1875Z" fill="white"/>
</g>
<defs>
<clipPath id="clip0_340:3269">
<rect width="62" height="62" fill="white"/>
</clipPath>
</defs>
</svg>
