<svg width="34" height="34" viewBox="0 0 34 34" fill="none" xmlns="http://www.w3.org/2000/svg">
<path d="M1.78947 31.4697L8.20653 25.0526H28.6316C29.5808 25.0526 30.4911 24.6756 31.1623 24.0044C31.8335 23.3332 32.2105 22.4229 32.2105 21.4737V5.36842C32.2105 4.41923 31.8335 3.50891 31.1623 2.83772C30.4911 2.16654 29.5808 1.78947 28.6316 1.78947H5.36842C4.41923 1.78947 3.50891 2.16654 2.83772 2.83772C2.16654 3.50891 1.78947 4.41923 1.78947 5.36842V31.4697ZM1.78947 34H0V5.36842C0 3.94463 0.5656 2.57915 1.57237 1.57237C2.57915 0.5656 3.94463 0 5.36842 0H28.6316C30.0554 0 31.4209 0.5656 32.4276 1.57237C33.4344 2.57915 34 3.94463 34 5.36842V21.4737C34 22.8975 33.4344 24.263 32.4276 25.2697C31.4209 26.2765 30.0554 26.8421 28.6316 26.8421H8.94737L1.78947 34Z" fill="white"/>
</svg>
